<svg xmlns="http://www.w3.org/2000/svg" viewBox="0 0 100 100">
  <circle cx="50" cy="50" r="45" fill="#fff"/>
  <path d="M50 25c13.8 0 25 11.2 25 25s-11.2 25-25 25-25-11.2-25-25 11.2-25 25-25z" fill="#4285f4"/>
  <path d="M81.2 35H55.8c5.8 3.8 9.7 10.3 9.7 17.8 0 2.7-.5 5.3-1.4 7.7l17.1 29.6c11.1-8.8 18.3-22.3 18.8-37.5H81.2z" fill="#ea4335"/>
  <path d="M50 75c9.7 0 17.8-7 19.5-16.2L50 29.5c-13.8 0-25 11.2-25 25 0 13.8 11.2 25 25 25z" fill="#fbbc05"/>
  <path d="M45.2 50c0-2.6 2.1-4.8 4.8-4.8s4.8 2.1 4.8 4.8c0 2.6-2.1 4.8-4.8 4.8s-4.8-2.1-4.8-4.8z" fill="#4285f4"/>
  <path d="M50 25c-8.9 0-16.7 4.6-21.2 11.6L45.3 65c2.8 4.9 8.2 8.2 14.3 8.2 9.1 0 16.5-7.4 16.5-16.5 0-6.5-3.8-12.2-9.3-14.8L50 25z" fill="#34a853"/>
</svg>

